<svg xmlns="http://www.w3.org/2000/svg" xmlns:xlink="http://www.w3.org/1999/xlink" width="500" zoomAndPan="magnify" viewBox="0 0 375 374.999991" height="500" preserveAspectRatio="xMidYMid meet" version="1.0"><defs><filter x="0%" y="0%" width="100%" height="100%" id="160c7a8322"><feColorMatrix values="0 0 0 0 1 0 0 0 0 1 0 0 0 0 1 0 0 0 1 0" color-interpolation-filters="sRGB"/></filter><g/><mask id="481b6562ea"><g filter="url(#160c7a8322)"><rect x="-37.5" width="450" fill="#000000" y="-37.499999" height="449.999989" fill-opacity="0.6"/></g></mask><clipPath id="f7030a7fdb"><path d="M 0.988281 0.25 L 372.007812 0.25 L 372.007812 371.269531 L 0.988281 371.269531 Z M 0.988281 0.25 " clip-rule="nonzero"/></clipPath><clipPath id="2b2e750567"><path d="M 372.007812 185.757812 C 372.007812 288.214844 288.949219 371.269531 186.496094 371.269531 C 84.042969 371.269531 0.988281 288.214844 0.988281 185.757812 C 0.988281 83.304688 84.042969 0.25 186.496094 0.25 C 288.949219 0.25 372.007812 83.304688 372.007812 185.757812 L 320.0625 185.757812 C 320.0625 111.992188 260.265625 52.191406 186.496094 52.191406 C 112.730469 52.191406 52.929688 111.992188 52.929688 185.757812 C 52.929688 259.527344 112.730469 319.324219 186.496094 319.324219 C 260.265625 319.324219 320.0625 259.527344 320.0625 185.757812 Z M 372.007812 185.757812 " clip-rule="nonzero"/></clipPath><clipPath id="0212258d94"><path d="M 3 185 L 370 185 L 370 371.269531 L 3 371.269531 Z M 3 185 " clip-rule="nonzero"/></clipPath><clipPath id="28b4bc2522"><path d="M 369.53125 215.957031 C 354.75 305.546875 277.296875 371.269531 186.496094 371.269531 C 95.699219 371.269531 18.242188 305.546875 3.460938 215.957031 C 1.953125 206.804688 5.441406 197.539062 12.613281 191.652344 C 19.785156 185.765625 29.554688 184.15625 38.238281 187.425781 C 46.921875 190.695312 53.203125 198.347656 54.710938 207.503906 C 65.355469 272.003906 121.121094 319.324219 186.496094 319.324219 C 251.871094 319.324219 307.640625 272.003906 318.28125 207.503906 C 319.792969 198.347656 326.074219 190.695312 334.757812 187.425781 C 343.441406 184.15625 353.207031 185.765625 360.378906 191.652344 C 367.554688 197.539062 371.042969 206.804688 369.53125 215.957031 Z M 369.53125 215.957031 " clip-rule="nonzero"/></clipPath><clipPath id="dddeaca472"><rect x="0" width="373" y="0" height="372"/></clipPath></defs><g mask="url(#481b6562ea)"><g transform="matrix(1, 0, 0, 1, 1, 2)"><g clip-path="url(#dddeaca472)"><g clip-path="url(#f7030a7fdb)"><g clip-path="url(#2b2e750567)"><path fill="#5ce1e6" d="M 372.007812 0.25 L 372.007812 371.269531 L 0.988281 371.269531 L 0.988281 0.25 Z M 372.007812 0.25 " fill-opacity="1" fill-rule="nonzero"/></g></g><g clip-path="url(#0212258d94)"><g clip-path="url(#28b4bc2522)"><path fill="#0cc0df" d="M 372.007812 0.25 L 372.007812 371.269531 L 0.988281 371.269531 L 0.988281 0.25 Z M 372.007812 0.25 " fill-opacity="1" fill-rule="nonzero"/></g></g></g></g></g><g fill="#7edeef" fill-opacity="1"><g transform="translate(91.987855, 259.749963)"><g><path d="M 25.140625 -64.84375 C 29.691406 -51.539062 36.351562 -41.488281 45.125 -34.6875 C 53.90625 -27.882812 63.503906 -25.222656 73.921875 -26.703125 C 80.753906 -27.679688 85.519531 -30.351562 88.21875 -34.71875 C 90.914062 -39.082031 91.925781 -43.628906 91.25 -48.359375 C 90.257812 -55.359375 86.367188 -60.820312 79.578125 -64.75 C 72.796875 -68.6875 63.316406 -72.601562 51.140625 -76.5 C 34.773438 -81.8125 22.035156 -88.46875 12.921875 -96.46875 C 3.816406 -104.476562 -1.660156 -115 -3.515625 -128.03125 C -4.878906 -137.625 -3.664062 -146.300781 0.125 -154.0625 C 3.914062 -161.832031 9.691406 -168.175781 17.453125 -173.09375 C 25.222656 -178.019531 34.234375 -181.210938 44.484375 -182.671875 C 49.859375 -183.429688 55.753906 -183.726562 62.171875 -183.5625 C 68.585938 -183.394531 73.816406 -182.523438 77.859375 -180.953125 L 97.71875 -190.234375 C 101.363281 -185.597656 104.226562 -178.90625 106.3125 -170.15625 C 108.394531 -161.414062 110.253906 -151.269531 111.890625 -139.71875 L 112.421875 -136.046875 L 92.15625 -133.15625 C 82.90625 -156.082031 69.738281 -166.332031 52.65625 -163.90625 C 46.132812 -162.976562 41.507812 -160.453125 38.78125 -156.328125 C 36.050781 -152.203125 35.117188 -147.128906 35.984375 -141.109375 C 36.671875 -136.234375 38.570312 -132.1875 41.6875 -128.96875 C 44.800781 -125.757812 48.53125 -123.175781 52.875 -121.21875 C 57.21875 -119.269531 62.953125 -117.140625 70.078125 -114.828125 C 81.054688 -111.242188 90.316406 -107.742188 97.859375 -104.328125 C 105.398438 -100.921875 112.207031 -95.953125 118.28125 -89.421875 C 124.363281 -82.898438 128.113281 -74.675781 129.53125 -64.75 C 130.820312 -55.644531 129.710938 -47.0625 126.203125 -39 C 122.703125 -30.9375 116.910156 -24.085938 108.828125 -18.453125 C 100.742188 -12.828125 90.925781 -9.191406 79.375 -7.546875 C 66.1875 -5.671875 52.691406 -6.578125 38.890625 -10.265625 L 21.265625 0.71875 C 17.304688 -5.03125 13.253906 -14.289062 9.109375 -27.0625 C 4.960938 -39.84375 2.171875 -51.273438 0.734375 -61.359375 Z M 25.140625 -64.84375 "/></g></g></g><path stroke-linecap="butt" transform="matrix(1.144399, -0.162796, 0.162796, 1.144399, 43.360002, -4.705648)" fill="none" stroke-linejoin="miter" d="M 29.426861 170.50104 C 31.717853 182.446034 36.196669 191.872578 42.863308 198.780671 C 49.563881 205.690178 57.465794 209.145588 66.562356 209.145952 C 72.532422 209.145294 76.942061 207.444671 79.791747 204.040738 C 82.639025 200.605743 84.061444 196.82128 84.062348 192.687825 C 84.06113 186.577731 81.388961 181.439373 76.039151 177.271801 C 70.72851 173.068841 63.088813 168.537975 53.123882 163.676334 C 39.757153 157.149747 29.652701 149.909624 22.813398 141.959786 C 16.006572 133.973608 12.602425 124.286924 12.604779 112.896865 C 12.603662 104.530552 14.686404 97.255991 18.853007 91.073183 C 23.054479 84.861201 28.784224 80.119328 36.040813 76.8576 C 43.297879 73.592526 51.404679 71.960451 60.364559 71.961851 C 65.051433 71.959561 70.138598 72.430645 75.623661 73.367935 C 81.110137 74.271293 85.483366 75.657998 88.749562 77.532349 L 106.87201 71.959238 C 109.44291 76.369796 111.073785 82.445474 111.767506 90.190094 C 112.498982 97.933258 112.861251 106.856124 112.86435 116.960121 L 112.862433 120.18889 L 95.153911 120.188834 C 90.014618 99.424715 79.981433 89.044195 65.051486 89.043453 C 59.358129 89.042514 55.086068 90.639827 52.238648 93.835867 C 49.425638 97.029975 48.020691 101.267487 48.02094 106.544583 C 48.01914 110.780311 49.148716 114.477243 51.405846 117.638249 C 53.695452 120.762914 56.578357 123.436081 60.051216 125.657273 C 63.522143 127.844057 68.174662 130.362769 74.00925 133.210064 C 82.966953 137.617806 90.468776 141.750176 96.508028 145.60622 C 102.586923 149.423531 107.811576 154.494907 112.186284 160.814133 C 116.5954 167.131427 118.801567 174.633808 118.799046 183.313634 C 118.799938 191.297618 116.803188 198.519558 112.812144 204.979929 C 108.852162 211.437892 103.070568 216.592233 95.466887 220.446298 C 87.864619 224.266431 79.008141 226.177571 68.90462 226.177324 C 57.377879 226.176007 45.938127 223.763576 34.582495 218.936209 L 18.124163 226.176247 C 15.415051 220.793699 13.073093 212.374287 11.094944 200.917533 C 9.113449 189.460304 8.125831 179.318655 8.123969 170.501672 Z M 29.426861 170.50104 " stroke="#0d8ba1" stroke-width="7.999988" stroke-opacity="1" stroke-miterlimit="4"/><g fill="#a5e1e3" fill-opacity="1"><g transform="translate(187.880836, 308.669223)"><g><path d="M 132.390625 -46.640625 C 132.390625 -41.773438 131.207031 -33.113281 128.84375 -20.65625 C 126.488281 -8.207031 124.351562 -0.144531 122.4375 3.53125 C 120.082031 2.945312 116.988281 1.769531 113.15625 0 L 10.828125 0 C 7.441406 -4.414062 5.75 -9.054688 5.75 -13.921875 C 10.757812 -13.921875 14.441406 -14.804688 16.796875 -16.578125 C 19.148438 -18.347656 20.328125 -21.296875 20.328125 -25.421875 L 20.328125 -129.078125 C 20.328125 -133.054688 19.1875 -135.925781 16.90625 -137.6875 C 14.625 -139.457031 10.976562 -140.34375 5.96875 -140.34375 C 5.96875 -145.207031 7.660156 -149.847656 11.046875 -154.265625 L 96.8125 -154.265625 C 99.3125 -155.441406 102.21875 -156.363281 105.53125 -157.03125 C 108.851562 -157.695312 111.910156 -158.03125 114.703125 -158.03125 C 116.910156 -153.75 119.304688 -147.851562 121.890625 -140.34375 C 124.472656 -132.832031 125.765625 -127.378906 125.765625 -123.984375 C 123.992188 -122.367188 120.96875 -120.675781 116.6875 -118.90625 C 112.414062 -117.132812 108.734375 -115.957031 105.640625 -115.375 C 103.722656 -120.820312 100.703125 -125.535156 96.578125 -129.515625 C 92.453125 -133.492188 87.664062 -135.484375 82.21875 -135.484375 L 57.25 -135.484375 L 57.25 -88.84375 L 73.15625 -88.84375 C 82.726562 -88.84375 87.515625 -94.222656 87.515625 -104.984375 C 94.148438 -104.984375 100.117188 -103.4375 105.421875 -100.34375 L 105.421875 -59.234375 C 103.066406 -57.753906 100.34375 -56.609375 97.25 -55.796875 C 94.15625 -54.992188 90.988281 -54.59375 87.75 -54.59375 C 87.75 -60.1875 86.421875 -64.382812 83.765625 -67.1875 C 81.109375 -69.988281 77.644531 -71.390625 73.375 -71.390625 L 57.25 -71.390625 L 57.25 -19.453125 L 83.984375 -19.453125 C 90.171875 -19.453125 95.546875 -22.066406 100.109375 -27.296875 C 104.679688 -32.523438 107.554688 -38.972656 108.734375 -46.640625 Z M 132.390625 -46.640625 "/></g></g></g><path stroke-linecap="butt" transform="matrix(1.036042, 0, 0, 1.036042, 178.112952, 67.863965)" fill="none" stroke-linejoin="miter" d="M 127.758919 178.00174 C 127.758919 182.688295 126.61273 191.03964 124.320352 203.052002 C 122.065677 215.064365 120.014602 222.861466 118.174667 226.435766 C 115.919993 225.84759 112.933869 224.701401 109.216295 223.00097 L 10.466833 223.00097 C 7.17154 218.729153 5.520123 214.249967 5.520123 209.563412 C 10.380115 209.563412 13.939334 208.711311 16.197778 207.010879 C 18.490156 205.310447 19.636345 202.463826 19.636345 198.467246 L 19.636345 98.41701 C 19.636345 94.563704 18.52409 91.78495 16.303348 90.084518 C 14.11277 88.384086 10.606337 87.531985 5.780278 87.531985 C 5.780278 82.845429 7.412843 78.366243 10.677973 74.094427 L 93.437345 74.094427 C 95.865456 72.952008 98.678143 72.065974 101.871637 71.440095 C 105.068901 70.780282 108.017321 70.44849 110.728209 70.44849 C 112.847151 74.580803 115.15461 80.277815 117.654358 87.531985 C 120.154106 94.789925 121.405865 100.049576 121.405865 103.314706 C 119.667729 104.875635 116.73439 106.527052 112.602077 108.261417 C 108.503698 109.961848 104.963331 111.092956 101.977207 111.647199 C 100.137272 106.368697 97.219014 101.821644 93.226205 98.002271 C 89.233395 94.148964 84.618476 92.222311 79.373907 92.222311 L 55.258693 92.222311 L 55.258693 137.221541 L 70.622905 137.221541 C 79.860283 137.221541 84.478973 132.029757 84.478973 121.64619 C 90.86596 121.64619 96.630838 123.139252 101.769837 126.125376 L 101.769837 165.81217 C 99.477459 167.237366 96.838208 168.349622 93.852084 169.145167 C 90.86596 169.91055 87.81197 170.291356 84.686342 170.291356 C 84.686342 164.911055 83.40065 160.86546 80.833036 158.158342 C 78.295584 155.447455 74.962587 154.093896 70.834045 154.093896 L 55.258693 154.093896 L 55.258693 204.250976 L 81.040406 204.250976 C 87.046587 204.250976 92.238371 201.732377 96.611987 196.698948 C 101.023306 191.627816 103.80206 185.395413 104.944479 178.00174 Z M 127.758919 178.00174 " stroke="#448f91" stroke-width="7.999988" stroke-opacity="1" stroke-miterlimit="4"/></svg>