<svg id="Layer_1" viewBox="0 0 24 24" xmlns="http://www.w3.org/2000/svg" data-name="Layer 1"><path d="m22.725 11.311c-1.349-1.384-4.516-4.201-10.026-6.961-2.583-1.294-5.077-2.36-7.41-3.168-1.18-.409-2.463-.115-3.347.768-.872.871-1.165 2.135-.763 3.299.496 1.438 1.545 4.146 3.184 6.752-1.641 2.607-2.689 5.314-3.184 6.751-.401 1.164-.109 2.428.763 3.299.886.888 2.183 1.172 3.347.768 2.333-.808 4.826-1.874 7.41-3.168 5.509-2.76 8.595-5.493 9.995-6.93.396-.381.41-1.011.031-1.409zm-10.921 6.55c-2.506 1.256-4.918 2.287-7.168 3.066-.458.161-.937.049-1.28-.292-.331-.331-.438-.791-.286-1.231.38-1.102 1.415-3.842 3.036-6.403h13.318c-1.583 1.308-4.063 3.08-7.619 4.86zm-5.697-6.86c-1.619-2.559-2.657-5.301-3.037-6.404-.152-.44-.045-.9.286-1.231.345-.345.831-.451 1.28-.292 2.25.779 4.662 1.811 7.168 3.066 3.557 1.781 6.037 3.552 7.62 4.861h-13.318z"/></svg>